<svg version="1.1" viewBox="0 0 100 100" xmlns="http://www.w3.org/2000/svg">
	<g transform="translate(677.93 -313.85)" fill="#9478f0">
		<g transform="matrix(.039782 0 0 .039782 -658.51 317.36)">
			<path
				d="m674.83 2044.1c322.95-57.05 589.69-104.26 592.75-104.91l5.5701-1.1813-304.9-362.67c-167.69-199.47-304.9-363.44-304.9-364.38 0-1.7896 314.83-868.77 316.6-871.85 0.59176-1.0312 214.84 368.87 519.36 896.67 285.1 494.13 520.14 901.55 522.33 905.36l3.9724 6.9416-1938-0.2495 587.18-103.73zm-1162.9-110.6c0-0.5106 143.67-249.9 319.26-554.21l319.26-553.28 372.06-312.23c204.63-171.73 372.61-312.44 373.28-312.7 0.67345-0.25658-2.0184 6.5186-5.982 15.056-3.9636 8.5374-185.76 398.48-404 866.54l-396.8 851.02-288.54 0.3618c-158.7 0.1991-288.54-0.056-288.54-0.5661z"
				stroke-width=".28222"/>
		</g>
	</g>
</svg>
