<svg version="1.1" viewBox="0 0 100 100" xmlns="http://www.w3.org/2000/svg">
 <path fill="#9478f0" d="m60.295 80.012-1.1822-4.1557-7.9813 8.3909 11.111 2.6104-1.1413-4.012c8.2083-4.2197 13.531-12.709 13.531-22.172 0-11.771-8.2242-21.866-19.578-24.346l-0.61493 2.8146c10.038 2.1931 17.312 11.122 17.312 21.532 0 8.1712-4.4873 15.521-11.456 19.338zm-21.678-38.387 1.606 4.2325 7.3704-8.7463-11.419-1.9247 1.4085 3.712c-7.8072 4.3535-12.791 12.618-12.791 21.775 0 11.746 8.1892 21.825 19.511 24.331l0.62278-2.8129c-10.009-2.2161-17.253-11.131-17.253-21.519 0-7.9544 4.2511-15.146 10.945-19.048zm5.1803-19.791c-11.13-0.92204-15.812-8.1706-14.046-21.746 14.06-0.87601 20.97 4.6852 20.731 16.684 2.084-4.2239 5.8864-8.7079 11.39-13.473 0.42103-0.36452 1.0578-0.3187 1.4223 0.10233 0.36451 0.42102 0.3187 1.0578-0.10232 1.4223-7.0476 6.1016-11.119 11.63-12.254 16.535 21.286 0.49824 38.387 17.909 38.387 39.315 0 21.719-17.607 39.325-39.326 39.325-21.719 0-39.326-17.607-39.326-39.325 0-19.608 14.351-35.865 33.123-38.839z"/>
</svg>
