<svg version="1.1" xmlns="http://www.w3.org/2000/svg" width="32" height="32" viewBox="0 0 32 32">
<path fill="#9478f0" d="M27.289 6.134l-10.188-5.813c-0.688-0.375-1.563-0.375-2.25 0l-10.188 5.813c-0.688 0.375-1.125 1.125-1.125 1.937v11.875c0 0.813 0.438 1.563 1.125 1.938l17.563 10.125v-7.188l5.063-2.938c0.688-0.375 1.125-1.125 1.125-1.938v-11.875c0.063-0.813-0.438-1.563-1.125-1.938zM14.414 19.196c0 1.188-0.938 2.125-2.125 2.125s-2.125-0.938-2.125-2.125c0-1.188 0.938-2.125 2.125-2.125 0.563 0 1 0.188 1.375 0.5l3.75-2.125c0.188 0.438 0.438 0.875 0.688 1.25l-3.75 2.125c0.063 0.125 0.063 0.25 0.063 0.375zM20.914 16.384c-1.188 0-2.125-0.938-2.125-2.125 0-0.125 0-0.25 0.063-0.375l-5.125-2.938c-0.375 0.313-0.875 0.5-1.375 0.5-1.188 0-2.125-0.938-2.125-2.125s0.938-2.125 2.125-2.125c1.188 0 2.125 0.938 2.125 2.125 0 0.125 0 0.25-0.063 0.375l5.125 2.938c0.375-0.313 0.875-0.563 1.438-0.563 1.188 0 2.125 0.938 2.125 2.125-0.063 1.188-1 2.188-2.188 2.188z"></path>
</svg>
