<svg data-name="Layer 1" version="1.1" viewBox="0 0 536 536" xmlns="http://www.w3.org/2000/svg">
	<path
		d="m119 0a13.57 13.57 0 0 1-3 1c-10.85 1.18-21.691 2.5399-32.311 5.4199a105.38 105.38 0 0 0-43.209 23.779c-17.54 15.72-29.67 34.801-35.1 57.861-2.38 10.04-3.4409 20.26-4.3809 30.51a8.53 8.53 0 0 1-1 2.4297v294a8.8 8.8 0 0 1 1.0508 2.4199c1.15 12.08 2.4989 24.1 5.8789 35.82a105.07 105.07 0 0 0 22.33 40.76c10.89 12.37 23.419 22.6 38.529 29.5a119.94 119.94 0 0 0 34.941 9.5606c6.59 0.85 13.22 1.31 19.83 2 0.51 0.06 0.95945 0.66 1.4394 1h287.96c0.47-0.35 0.91992-1 1.4199-1 6.61-0.74 13.24-1.21 19.84-2 27.98-3.38 51.559-15.24 70.799-36.07 16.75-18.14 26.051-39.441 29.051-63.721 0.71-5.76 1.2089-11.56 1.8789-17.33a6.22 6.22 0 0 1 1-1.9394v-292.96a8.56 8.56 0 0 1-1-2.3984c-1.05-10.56-2.1884-21.081-4.6484-31.461-5.5-23.16-17.95-41.911-35.5-57.561-17.14-15.3-37.35-23.779-60-26.699-6.08-0.82-12.201-1.31-18.301-2-0.5-0.06-1-0.59992-1.5-0.91992h-296zm25.74 156.34c0.45776 0.20455 0.89035 0.44122 1.3457 0.64844 5.0052 2.2595 9.9003 4.6759 14.779 7.1504 4.0767 2.0652 8.1457 4.1531 12.324 6.2012l-11 20.631c16.95-0.65 33.18-1.3806 49.42-1.8906a415.93 415.93 0 0 0 49.191-4.4102c-0.47 4.18-0.89055 7.8906-1.3106 11.561-2.1125 1.6759-4.3908 2.8022-6.7461 3.6582-0.00191 7e-4 -0.00395 0.00126-0.00586 0.00195-2.3462 0.85501-4.7677 1.4393-7.1777 2.0293-11.86 2.9-24.001 3.56-36.131 4-19.122 0.75969-38.245 1.6191-58.066 2.4688l-14.604 21.371 0.65039 0.65039c4.0032-1.1009 7.988-2.2747 11.982-3.4043 0.55024-0.15568 1.1112-0.27978 1.6621-0.43359 3.453-0.96407 6.9104-1.9163 10.416-2.7227a156.8 156.8 0 0 1 44.629-3.5293 66.81 66.81 0 0 1 23.66 5.4902c0.3745 0.16873 0.67701 0.38818 1.041 0.56445 1.1669 0.56579 2.2807 1.1694 3.3398 1.8106 0.70174 0.42435 1.3767 0.86406 2.0313 1.3203 0.92247 0.64365 1.798 1.3186 2.627 2.0234 0.64665 0.54925 1.2616 1.1161 1.8516 1.7012 0.70697 0.70172 1.3743 1.4266 2 2.1777 0.56233 0.67445 1.089 1.3674 1.5859 2.0801 0.51727 0.74256 0.99879 1.5048 1.4453 2.2871 0.46363 0.8115 0.88771 1.6417 1.2754 2.4941 0.3464 0.76236 0.66143 1.5404 0.94727 2.334 2.0134 5.5843 2.6126 11.883 1.6562 18.736-1.41 10.21-2.9602 20.4-4.4102 30.6-0.21 1.47-0.23008 2.9701-0.33008 4.3301 0.25 0.46 0.34961 0.87 0.59961 1 7.29 3.99 14.56 8.0311 21.92 11.871a23.23 23.23 0 0 0 6.1504 1.9492c2.6086 0.53099 4.9988 0.27231 7.041-0.58398 0.08721-0.03719 0.18759-0.05036 0.27344-0.08984 3.5142-1.6161 5.8809-5.1402 6.2246-9.8652a14.41 14.41 0 0 0-3.7793-11 29.85 29.85 0 0 0-0.39453-0.34375 29.85 29.85 0 0 0-8.8711-6.3106 29.85 29.85 0 0 0-0.4336-0.24609l-8.8203-4.2402c0.88-10.44 2.8201-20.671 4.3301-31.471 0.02098 0.00826 0.03187 0.0133 0.05273 0.02149 0.00195-0.01395 0.00391-0.02707 0.00586-0.04102 1.5 0.59 2.6812 0.95977 3.7812 1.5098 7.1474 3.5777 13.789 7.7812 19.555 13.258 0.94244 0.89644 1.8592 1.8308 2.75 2.8027 0.40697 0.44336 0.86026 0.81918 1.2559 1.2793 0.257 0.29919 0.43084 0.66628 0.67773 0.97461 0.98446 1.2311 1.8843 2.5301 2.7012 3.8906 0.44294 0.73666 0.85074 1.4772 1.2422 2.2461 0.69447 1.3649 1.3069 2.7722 1.832 4.2207 0.29934 0.82506 0.56458 1.6458 0.80664 2.4922 0.42999 1.5028 0.76576 3.0324 1.0078 4.584 0.13037 0.83653 0.233 1.6624 0.30664 2.5078 0.14334 1.6364 0.17694 3.2822 0.09961 4.9316-0.48577 10.248-5.2341 20.483-15.734 27.492-0.83 0.58-1.5901 1.14-2.8301 2 1.49 1.01 2.6196 1.8801 3.8496 2.5801 21.96 12.54 45.09 22.111 70.18 26.061 22.84 3.6 45.721 4.2609 68.381-1.6191 4.1793-1.0846 8.27-2.349 12.273-3.8125 0.00272-1e-3 0.00508-0.00291 0.00781-0.00391 0.06455-0.02363 0.1269-0.05243 0.1914-0.07617 3.8857-1.4282 7.6852-3.0523 11.402-4.8848 7.7542-3.8277 15.141-8.5787 22.145-14.473 9.3e-4 0.00966 0.00102 0.01574 0.00195 0.02539 0.01936-0.01627 0.03925-0.03059 0.0586-0.04687 0.28 2.9 0.49851 5.2813 0.72851 7.6113a85.17 85.17 0 0 1-0.34375 0.36328 85.17 85.17 0 0 1-14.611 15.428 85.17 85.17 0 0 1-0.2832 0.29883c-13.991 11.944-29.653 20.602-47.25 25.213-0.00261 6.8e-4 -0.0052 0.00126-0.00781 0.00195-2.5309 0.66525-5.1007 1.2482-7.7129 1.7441a117.57 117.57 0 0 1-29.279 1.9004c-25.39-1.57-49.291-8.8405-72.691-18.23a408.25 408.25 0 0 1-60.549-30.439c-0.81454-0.49069-1.696-0.8901-2.7774-1.4434-2.0576 14.184-4.0762 28.119-6.1738 42.553-0.01901-0.00127-0.03569-0.00265-0.05469-0.00391-0.00126 0.00862-0.00266 0.01677-0.00391 0.02539-5.25-0.33-10.201-0.47-15.111-1-11.93-1.23-23.66-3.4717-34.92-7.7617-8.82-3.36-16.9-7.8694-23.33-14.939-14.69-16.27-12.689-44.59 10.311-55.18a64.88 64.88 0 0 1 16.1-5c7.28-1.3 14.59-1.0991 21.92-0.86914h4.4102c0.70762-4.9832 1.3952-9.7924 2.1621-15.131a42.69 42.69 0 0 0-6.1211-0.69922c-12.17 0.37-24.201 1.49-35.711 6-20.09 7.88-33.43 22.359-41.76 41.939a136.11 136.11 0 0 0-7.9199 27.77c-2.65 13.82-12.661 22.08-25.311 24.08-2.29 0.36-4.5999 0.67985-6.9199 0.83985-2.13 0.11-4.2891 0-6.6191 0 4.52e-4 -0.00481-4.4e-4 -0.00499 0-0.00977 0.079548-0.84519 0.003614-1.3591 0.17969-1.6992 0.001001-0.00193-0.001017-0.00784 0-0.00976 0.028144-0.04698 0.052041-0.09556 0.080078-0.14258 1.5763-2.6481 2.9919-5.3576 4.2559-8.123 0.009906-0.02166 0.021361-0.04279 0.03125-0.06445 1.2927-2.8322 2.4324-5.7201 3.4414-8.6523 0.001339-0.00389 0.002568-0.00783 0.003906-0.01172 0.1248-0.3628 0.20728-0.73938 0.32812-1.1035 1.8353-5.5299 3.2613-11.197 4.3496-16.953 2.81-14.85 4.93-29.83 7.25-44.76 1.33-8.54 2.499-17.1 3.709-25.66a20.6 20.6 0 0 0 0.00781-0.125 20.6 20.6 0 0 0 0.0039-0.04882 20.6 20.6 0 0 0 0.00196-0.03516 20.6 20.6 0 0 0 0.00586-0.14063 20.6 20.6 0 0 0 0.0039-0.07617 20.6 20.6 0 0 0 0.00391-0.09765 20.6 20.6 0 0 0 0.0039-0.1211 20.6 20.6 0 0 0 0.00196-0.05468 20.6 20.6 0 0 0 0.0039-0.16407 20.6 20.6 0 0 0 0-0.00976 20.6 20.6 0 0 0 0-0.03907 20.6 20.6 0 0 0 0.00391-0.13671 20.6 20.6 0 0 0 0-0.03321 20.6 20.6 0 0 0 0-0.43554 20.6 20.6 0 0 0 0-0.05469 20.6 20.6 0 0 0-0.00391-0.16406 20.6 20.6 0 0 0 0-0.01172 20.6 20.6 0 0 0-0.00586-0.20703 20.6 20.6 0 0 0-0.00781-0.21875 20.6 20.6 0 0 0-0.0039-0.09766 20.6 20.6 0 0 0-0.00586-0.11914 20.6 20.6 0 0 0-0.01367-0.21875c-0.28097 0.22988-0.54132 0.43828-0.82032 0.66797-4.4381 3.6246-8.6044 7.2057-12.951 10.531-0.23119 0.1767-0.45524 0.3854-0.6875 0.56054-4.4725 3.3753-9.1634 6.3835-14.426 8.2305-1.5718 0.55149-3.1956 0.99959-4.8809 1.3184-0.077549 0.01468-0.1468 0.04641-0.22461 0.06055-2.7016 0.48356-5.2743 0.50222-7.7383-0.12695-0.93095-0.23931-1.8458-0.57857-2.7441-1.0274-0.20989-0.10524-0.42078-0.21224-0.62891-0.33008-0.99419-0.56001-1.968-1.2539-2.9219-2.1191-0.034357-0.03148-0.071163-0.04425-0.10547-0.07617 0.002119-0.00143 0.003741-0.00247 0.005859-0.0039-0.002105-0.00194-0.003755-0.00393-0.005859-0.00586 2.27-1.54 4.3595-2.8106 6.2695-4.3106 9.41-7 17.29-15.61 24.59-24.73a327.86 327.86 0 0 0 25.15-37.199c0.56-1 0.92039-2.0004 1.6504-3.6504-4.3 0.19-8.0811 0.46-11.871 0.5a51.11 51.11 0 0 1-8.9297-0.39062c-7.06-1.13-11.34-5.4292-12.35-12.449-0.4-2.74-0.070312-5.5895-0.070312-8.5195 0.011627 9.8e-4 0.017779-9.1e-4 0.029297 0 1e-6 -0.0033 0-0.00647 0-0.00977 0.070226 0.00592 0.080212 0.01015 0.14648 0.01367 0.65179 0.03477 1.1199 0.00395 1.4395 0.14258 0.032063 0.01394 0.11531-0.0047 0.14453 0.01367 5.46 3.38 11.401 4.29 17.721 3.9199 7.8016-0.4595 15.622-0.63028 23.613-0.92968 6.2076-11.477 11.089-23.455 16.447-35.861 0.00722 0.0032 0.01426 0.00657 0.02148 0.00977 0.00283-0.00655 0.00499-0.01299 0.00781-0.01954zm264.35 0.07032c0.01529 0.00655 0.02964 0.01492 0.04493 0.02148 0.00512-0.00739 0.0105-0.01409 0.01562-0.02148 0.49644 0.21357 0.97457 0.47732 1.4688 0.69531 3.7918 1.6705 7.5203 3.4553 11.242 5.3144 5.2093 2.5985 10.446 5.2881 15.889 7.9902l-18.346 19.166a320.86 320.86 0 0 0 46.445-4.2363c-3.4e-4 0.00275 3.4e-4 0.00507 0 0.00782a320.86 320.86 0 0 0 0.06055-0.00782c-0.52 4.24-1.0007 8.1211-1.4707 11.871-0.22325 0.15821-0.45851 0.25733-0.68359 0.40625-0.76689 0.5126-1.5448 0.97616-2.334 1.3906-0.36318 0.18964-0.72708 0.37518-1.0938 0.54688-0.81531 0.38348-1.6394 0.72507-2.4707 1.0332-0.37881 0.14003-0.7594 0.26726-1.1406 0.39453-2.1093 0.70592-4.2518 1.2418-6.3906 1.7344-0.16326 0.0375-0.32305 0.09558-0.48633 0.13281a132.15 132.15 0 0 1-0.20507 0.02539 132.15 132.15 0 0 1-26.389 3.293 132.15 132.15 0 0 1-0.08593 0.01172c-7.48 0.15-14.96 0.73039-23.16 1.1504l-12.576 10.584a24.21 24.21 0 0 0 3.1465 0.56641c10.47 0.28 20.909 0.57883 30.939 4.2988 14.44 5.36 19.2 16.18 17.91 29.34-1.48 15-4.1098 29.95-6.2598 44.91-1.65 11.51-3.35 23.001-5 34.531-0.16 0.64-0.31032 1.2594-0.57032 2.4394-7.2916 1.2397-14.585 2.6918-21.941 3.7188-0.15969 0.02343-0.31882 0.05897-0.47852 0.08203a178.68 178.68 0 0 1-17.49 1.3535 178.68 178.68 0 0 1-6.4609-0.13086 178.68 178.68 0 0 1-11.02-0.22266c-18.42-1.12-36.139-5.2014-52.689-13.691-1.33-0.68001-2.6397-1.4102-3.9297-2.1602-0.86-0.49-1.681-1.0598-2.791-1.7598 4.3-30.047 8.6085-60.116 12.922-90.209 5.19-3.71 22.4-8.0798 36-10.26l9.4785-11.531c-4.7837-0.00125-9.069-0.13936-13.35 0-7.81 0.27-15.629 0.73-23.439 1a60.26 60.26 0 0 1-0.04883 0 60.26 60.26 0 0 1-10.361-0.11914 60.26 60.26 0 0 1-0.06054 0c-7.69-1.11-12.091-5.9994-12.811-13.689a43.73 43.73 0 0 1 0-5.4902 7.6 7.6 0 0 1 0.43164-1.6914c0.41-0.1 0.61875-0.23969 0.71875-0.17969 0.00628 0.00397 0.01325 0.00581 0.01953 0.00977 0.00641 0.00216 0.03534-0.01317 0.04102-0.00977 4.9858 3.1639 10.404 4.1313 15.998 4.2188 0.00195 3e-5 0.00392-3e-5 0.00586 0 0.00839 1.3e-4 0.01701-1.2e-4 0.0254 0 1.8076 0.02721 3.6352-0.043 5.4707-0.1543 0.03005-0.00183 0.05979-0.00204 0.08984-0.0039 6.12-0.39 12.25-0.5193 18.93-0.7793l-9.5898-22.83 28.311-12.141c0.00126 0.00803 0.00265 0.0154 0.00391 0.02344l0.05664-0.02344c1.8 11.53 3.5083 22.559 5.2383 33.699h8.7305c0.82179-1.017 1.6202-2.0702 2.4336-3.0996 2.7288-3.4521 5.4192-6.9717 8.0781-10.555 2.3434-3.1587 4.675-6.3602 6.9922-9.6113 1.1296-1.5843 2.2628-3.1784 3.3906-4.7832 1.5311-2.179 3.061-4.356 4.5957-6.5703zm-132.58 40.24c1.8988 1.0875 3.7544 2.1964 5.5547 3.3398 1.8003 1.1434 3.5459 2.3205 5.2227 3.5449 1.6768 1.2244 3.2842 2.4957 4.8125 3.8262 1.5194 1.3228 2.9606 2.7059 4.3086 4.1582 0.00747 0.00804 0.01598 0.01539 0.02344 0.02344 0.00628 0.00678 0.0113 0.0147 0.01758 0.02148 1.3479 1.4557 2.6029 2.9813 3.7539 4.5918 1.1561 1.6177 2.2062 3.3203 3.1387 5.1191s1.7479 3.6942 2.4316 5.6992c0.68373 2.005 1.2365 4.1192 1.6465 6.3555a30.59 30.59 0 0 1 0.2168 1.3711 30.59 30.59 0 0 1 0.00195 0.01563 30.59 30.59 0 0 1 0.00195 0.01758 30.59 30.59 0 0 1 0.14844 1.3398 30.59 30.59 0 0 1 0.00391 0.03711 30.59 30.59 0 0 1 0.00195 0.03125 30.59 30.59 0 0 1 0.08594 1.3047 30.59 30.59 0 0 1 0 0.00195 30.59 30.59 0 0 1 0 0.00195 30.59 30.59 0 0 1 0 0.00195 30.59 30.59 0 0 1 0 0.00196 30.59 30.59 0 0 1 0 0.00195 30.59 30.59 0 0 1 0 0.00195 30.59 30.59 0 0 1 0.00586 0.12696 30.59 30.59 0 0 1 0.02344 1.3281 30.59 30.59 0 0 1-0.03516 1.3652 30.59 30.59 0 0 1-0.00195 0.03906 30.59 30.59 0 0 1-0.00196 0.03125 30.59 30.59 0 0 1-0.09765 1.334 30.59 30.59 0 0 1-0.00196 0.03321 30.59 30.59 0 0 1-0.00586 0.04687 30.59 30.59 0 0 1-0.14648 1.2285 30.59 30.59 0 0 1-0.02734 0.19922 30.59 30.59 0 0 1-0.21094 1.2715 30.59 30.59 0 0 1-0.00586 0.0332 30.59 30.59 0 0 1-0.00781 0.03711 30.59 30.59 0 0 1-0.26953 1.2637 30.59 30.59 0 0 1-0.04297 0.16992 30.59 30.59 0 0 1-0.33008 1.2578 30.59 30.59 0 0 1-0.40234 1.293 30.59 30.59 0 0 1-0.04102 0.12109 30.59 30.59 0 0 1-0.44141 1.2109 30.59 30.59 0 0 1-0.01172 0.03516 30.59 30.59 0 0 1-0.01367 0.03125 30.59 30.59 0 0 1-0.52539 1.2637c-1.6746-1.4997-3.2937-3.0226-4.9258-4.5059h-0.00195c-0.01642-0.01492-0.03241-0.03001-0.04883-0.04492-1.6159-1.4677-3.2459-2.8974-4.9531-4.2285a109.9 109.9 0 0 0-11.07-7.5801c-3.82-2.29-7.8794-4.1798-12.359-6.5098 1.48-10.24 2.9901-20.63 4.5801-31.66zm107.66 35.35c-0.92116-0.01174-1.8429-8.4e-4 -2.7637 0.0293-1.472 0.04771-2.9433 0.15191-4.4141 0.29101-2.9955 0.28432-5.9885 0.72723-8.9746 1.2695a53.65 53.65 0 0 0-18.66 6.6094c-0.97002 6.41-1.9395 12.802-3.0195 19.852a15.55 15.55 0 0 0 1.8398-0.81055 69.78 69.78 0 0 1 1.5918-0.83984 69.78 69.78 0 0 1 7.418-3.918 69.78 69.78 0 0 1 3.6113-1.5195 69.78 69.78 0 0 1 7.9336-2.5547 69.78 69.78 0 0 1 1.7656-0.56836 140.15 140.15 0 0 1 2.5859-0.46093 140.15 140.15 0 0 1 11.582-2.0625 140.15 140.15 0 0 1 5.4473-0.63086 140.15 140.15 0 0 1 11.893-0.64063 140.15 140.15 0 0 1 2.4922-0.13476c1.35 0 2.7696-0.18102 4.3496-0.29102-0.28947-0.95216-0.62864-1.835-1.0098-2.6582-1.24-2.6582-2.9576-4.6464-5.0098-6.1699-1.0227-0.76356-2.139-1.3976-3.3223-1.9395-0.42165-0.19198-0.8554-0.36765-1.2949-0.53515-1.0053-0.38537-2.0562-0.7078-3.1445-0.98047-0.28845-0.0718-0.56384-0.16166-0.85742-0.22656-0.56867-0.12558-1.1383-0.20779-1.707-0.31055-0.83589-0.15148-1.6719-0.28549-2.5078-0.39063-1.3643-0.17088-2.7277-0.28003-4.0918-0.33984-0.57755-0.02558-1.155-0.06078-1.7324-0.06836zm-190.99 6.1797a106.65 106.65 0 0 0-27.699 2.9004c-2.275 0.5475-4.5229 1.1648-6.7363 1.875-4.4366 1.4233-8.7381 3.2227-12.863 5.5879-2.0494 1.175-4.0551 2.4881-6.0117 3.9668-1.47 10.14-2.9998 20.451-4.5098 31.061 2.385-2.215 4.6029-4.4302 6.8105-6.5488 2.2075-2.1188 4.405-4.1407 6.75-5.9707 6.1912-4.8225 12.77-8.6451 19.652-11.67 6.8824-3.0248 14.069-5.2518 21.479-6.8828 4.9394-1.0874 9.9773-1.9098 15.09-2.5274 3.6-0.43 7.2101-0.77093 11.33-1.2109a16.85 16.85 0 0 0-8.7012-7.6992 40.94 40.94 0 0 0-14.59-2.8809zm191.93 26.752a80.37 80.37 0 0 0-2.959 0.06055 80.37 80.37 0 0 0-15.943 1.6387c-1.744 0.35262-3.465 0.7668-5.1582 1.2539-1.2796 0.36738-2.543 0.7796-3.7832 1.25-0.20568 0.07776-0.41078 0.1574-0.61523 0.23828-1.3786 0.5472-2.7314 1.1561-4.0469 1.8613-0.04498 0.02403-0.08987 0.04803-0.13476 0.07226-1.4021 0.75931-2.7672 1.6121-4.082 2.584a12.62 12.62 0 0 0-3.3125 3.4863 12.62 12.62 0 0 0-0.61328 1.0176 12.62 12.62 0 0 0-1.5449 4.5547c-0.34 3-1.0008 5.9415-1.5508 9.2715 7-2.86 13.62-5.8207 20.4-8.2207a80.93 80.93 0 0 1 20.732-3.9941 80.93 80.93 0 0 1 0.70899-0.13672c2.8836-0.20201 5.9862-0.36762 8.9121-0.54297 4.3987-0.27005 8.8686-0.52861 13.588-0.82617 0.44-3.4 0.86883-6.7506 1.2988-10.061a80.37 80.37 0 0 0-10.818-2.5078 80.37 80.37 0 0 0-3.6035-0.39258 80.37 80.37 0 0 0-7.4746-0.60742zm-7.9277 32.945c-1.7567 0.03531-3.5148 0.11904-5.2754 0.26367-1.2953 0.10704-2.5935 0.25885-3.8906 0.42188-1.0196 0.1277-2.0399 0.28057-3.0606 0.44141-0.97317 0.15376-1.9459 0.29384-2.9199 0.47656a47.55 47.55 0 0 0-17.158 6.3594c-1.0186 0.64964-1.9738 1.3567-2.8418 2.1406-0.32782 0.29753-0.64227 0.60668-0.93945 0.93164-0.25776 0.2802-0.50284 0.57131-0.73438 0.875-0.38879 0.51342-0.74109 1.059-1.043 1.6504-0.09804 0.19033-0.19524 0.38071-0.28321 0.58008-0.33222 0.76054-0.5973 1.5826-0.76562 2.4902-0.01147 0.06066-0.03035 0.1144-0.04102 0.17578 20.616 7.6661 41.081 8.7952 61.857 2.1465 0.74759-5.3926 1.4161-10.257 2.084-15.092-0.86435-0.3679-1.2956-0.59873-1.7441-0.73828-7.6926-2.3515-15.448-3.2836-23.244-3.123zm-186.85 14.223c-8.0654 0.87477-13.399 6.9156-13.771 14.566-1e-4 0.00197 1e-4 0.00388 0 0.00586-0.05123 1.0871-0.00291 2.2062 0.15234 3.3476 0.93 6.9 4.5984 11.98 10.068 15.9a40.33 40.33 0 0 0 17.051 6.8203c1.899-12.963 3.7293-25.516 5.5684-38.09a40.54 40.54 0 0 0-0.25781-0.06641 40.54 40.54 0 0 0-13.174-2.4102 40.54 40.54 0 0 0-5.6367-0.07422z"
		fill="#9478f0"/>
</svg>
