<svg data-name="Layer 1" version="1.1" viewBox="0 0 400 400" xmlns="http://www.w3.org/2000/svg">
	<path
		d="m274.56 74.143c-23.137 0.10033-48.261 8.3566-69.1 27.758 18.54 21.06 28.69 45.59 28.76 73.9 0.08 28.49-9.9116 53.229-28.852 74.869 17.25 15.7 37.251 24.551 60.561 27.291-1.57 2.39-2.5695 4.1094-3.7695 5.6894-17.58 23.35-41.04 33.96-70.16 32 0 0-0.557-0.03796-1.3477-0.20508l-18.014 21.779c3.89 0.81 6.2404 1.3951 10.15 1.9551 42.05 6.06 75.731-8.1296 100.77-42.35 4.57-6.25 7.8394-13.46 11.859-20.5 49.17-11.14 77.73-49.321 81-93.061 3-39.28-16.601-85.93-72.131-104.49-9.1062-3.0438-19.212-4.6823-29.729-4.6367zm-10.201 73.938h9.3398c-0.95 5.79-1.8498 11.269-2.8398 17.359 4.76 0 9.0501-0.15 13.33 0 9.88 0.4 12.141 3.1203 10.521 12.82-1.71 9.99-3.5404 19.919-5.4004 30.279h-9.2305c1.9-11.34 3.7509-22.428 5.6309-33.738-4.7764-1.9914-11.001-1.2704-16.311-1.6504-2.14 12-4.1912 23.629-6.2812 35.389h-9.2988c3.53-20.29 6.9991-40.319 10.539-60.459zm46.9 0.63086h9.6308c-0.48 3.08-0.89117 6.0691-1.4512 9.2891h-9.7285l1.5488-9.2891zm-2.75 16.818h9.4102c-2.51 14.45-5.0005 28.61-7.4805 43h-9.4394c2.5-14.22 4.9998-28.46 7.5098-43z"
		fill="#9478f0"/>
	<path
		d="m167.41 331.17c-22.577-6.8343-52.498-32.403-58.128-53.016-30.22-6.86-58.066-24.851-73.286-52.241-11.608-20.467-15.627-44.372-11.35-67.51 8.7847-50.711 54.085-86.854 105.48-84.16 47.26 2.31 88.63 38 95.78 88.68 1.92 13.65 0.57 27.05-2.9 40.26-3.4765 13.403-9.8 25.9-18.54 36.64-8.5145 10.556-18.973 19.381-30.81 26-12 6.69-25 10-38.76 12.32 3.9541 14.642 16.923 34.046 44.027 39.476z"
		fill="none" stroke="#9478f0" stroke-width="8.6"/>
	<g fill="#9478f0">
		<path
			d="m130.34 158.12h25.78c2.47 6-0.74 11.41-0.82 17.18l2.8 1.62-0.26 5.26-4 1.49q-1 5.39-2.14 11.56l5.34 1.24-0.26 5.2-6.19 0.93c-0.86 3.69-1.72 7.34-2.59 11h-14.3c-0.57-2.11-1.08-4-1.76-6.48l9.51-0.54c0.18-1.22 0.38-2.54 0.62-4.24h-23.66l4.59-18.41-3-1.61-0.42-4.13-8.3-0.37c-1-5.7-2.05-11.36-3.2-17.7l7.51-0.39c1.29 5.48 2.49 10.61 3.76 16.05h5.76c1.29-5.22 2.58-10.45 4-16.34l-7 4.8c-0.49-5.35 0.42-9.44 3.57-13.34 3-3.67 5.14-8 7.88-12.39l7.09 0.43c-0.5 2-0.91 3.73-1.47 6h22.94c-0.14 2.44-0.26 4.31-0.4 6.7h-26.52c-1.54 2.06-2.8 3.73-4.86 6.48zm0.63 25.11c-1.08 4.1-2.11 8-3.26 12.39h16.14c0.72-4.08 1.42-8.05 2.19-12.39zm4.7-18.25c-0.9 3.52-1.8 7.05-2.78 10.85h14.72l1.52-10.83z"/>
		<path
			d="m90.47 143.53c9.21-1.1 14.63-0.75 18.73 1.29q-3.56 26.13-7.21 53h-18.99c2.54-18.25 5-36.23 7.47-54.29zm6.81 6.74c-2 13.76-3.91 27.26-5.9 41.08l3.91 0.26c1.94-13.94 3.84-27.57 5.78-41.53z"/>
		<path d="m109.43 185.34h8a173.8 173.8 0 0 1-13.08 28.37h-9.51z"/>
		<path d="m121.77 155.85h-8.3c-1.07-5.25-2.17-10.67-3.35-16.53h7.6c1.28 5.02 2.55 10.37 4.05 16.53z"/>
		<path d="m139.13 185.29c1 2.5 2.09 5 3.36 8h-8.17c-1-2.74-1.86-5.12-2.91-8z"/>
		<path d="m143.35 166.59c1 2.44 1.79 4.56 2.8 7.15h-7.79l-3-7.15z"/>
	</g>
</svg>
