<svg viewBox="0 0 100 100" xmlns="http://www.w3.org/2000/svg">
	<g transform="matrix(1.6547 0 0 1.6547 -123.51 -115.48)" stroke-width=".1599" fill="#9478f0">
		<path class="cls-2"
			  d="m93.075 120.72-9.6229 4.9001c0.65088-2.9607 1.2515-5.6806 1.8521-8.4667-0.93398-0.75936-1.9076-1.5028-2.8258-2.3098-2.7966-2.4606-4.9821-5.3816-6.3103-8.8715-2.4315-6.4109-1.9764-12.639 1.4631-18.561 3.7042-6.3288 9.3345-10.184 16.304-11.964 9.906-2.5294 19.074-0.85196 27.08 5.7176 4.2598 3.4951 7.0141 8.0036 7.919 13.494 1.1536 6.9797-0.8943 13.062-5.5748 18.256-4.2095 4.6672-9.5673 7.321-15.679 8.5884-4.6937 0.97102-9.308 0.55827-13.899-0.60325zm25.429-25.135-0.0124-0.33639c-3.0136-0.47625-6.2846-0.7484-9.0628-1.8967 1.2277-1.307 2.4395-2.5215 3.5613-3.8126 0.79375-0.90223 2.1988-2.0282 2.8125-1.9235 0.23925-0.02582 0.37598-0.34389 0.28575-0.42333l-3.3629-3.2326c-0.27951-0.42047-0.79489 0.63356-1.0987 0.9167-0.30378 0.28314-0.63632 0.48315-0.99087 0.62487-0.70908 0.28343-1.5061 0.33371-2.3369 0.34958-1.9791 0.03704-3.9688 0.24606-5.9372 0.3466-1.7833 0.08996-3.5692 0.13494-5.5933 0.20638l1.2753 1.7462h1.6907l4.1037 5.5774c-2.7305 1.5258-5.4469 3.0418-8.1492 4.5482-0.09249 0.05754-0.11651 0.20638 0.02381 0.30956 0.15079 0.25431 0.68595 0.10438 1.0583 0.06086 3.2755-0.69586 6.4611-1.6589 9.3504-3.2517 3.7227 2.1537 6.8342 3.2755 9.0144 3.2914 0.15482-0.52845 2.4343-3.0163 3.3682-3.1009zm-10.094 11.816 9.4271-0.26459 0.0714-0.29104-1.5875-1.7621-7.9243 0.73289v-3.6565h6.7125l0.17462-0.40746-1.8124-1.6192-5.17 0.55298c0.0661-0.96044 0.11377-1.6272 0.16933-2.3998-1.0583-0.70644-2.2675-1.3361-3.9052-1.3467v3.9687h-6.9215l1.1483 1.7727h5.5562v3.2094l-8.0169 0.35718 1.4499 1.7595 6.6331-0.28575v6.9638c1.0186-0.2884 1.9024-0.5424 2.7914-0.79375 0.95515-0.26459 1.2753-0.86255 1.225-1.8521-0.0767-1.4843-0.0212-2.9792-0.0212-4.6408zm-18.206-11.356v15.61h3.175v-17.965h-9.8108v2.3548zm-0.37306-10.636v3.9688h3.9238v-3.9688z"/>
		<path class="cls-2"
			  d="m128.49 120.31c0.37306 1.741 0.73025 3.3946 1.0848 5.0509l-0.26459 0.21432-5.5562-2.966c-3.1721 1.09-6.2759 1.8838-9.4403 0.17727 9.6732-4.2333 16.388-10.925 18.164-21.778 3.892 4.4979 4.0481 13.801-3.9873 19.301z"/>
		<path class="cls-2"
			  d="m106.04 91.716c-1.6484-1.0054-3.2464-1.9526-4.4053-3.7042l8.0962-0.58208c-1.053 1.733-2.3574 2.9898-3.6909 4.2862z"/>
	</g>
</svg>
