<svg viewBox="0 0 100 100" xmlns="http://www.w3.org/2000/svg">
	<g transform="matrix(6.8063 0 0 6.8063 -769.54 -447.97)" fill="#9478f0">
		<path
			d="m114.43 72.77h-0.9816l0.36777-1.6007h0.95779c0.0847-0.29104 0.15875-0.57415 0.26458-0.84931 0.18012-0.53339 0.47252-1.028 0.83608-1.4579 0.51629-0.60992 1.2329-1.0161 2.0214-1.1456 0.59251-0.11402 1.2045-0.07115 1.7754 0.12435 0.0292 0.0078 0.0575 0.01843 0.0847 0.03175l0.045 0.02381-0.52917 1.6589c-0.14022-0.04498-0.26458-0.0926-0.381-0.11906-0.6964-0.21842-1.4416 0.14837-1.6933 0.83344-0.11906 0.28046-0.20108 0.57944-0.30692 0.889h1.606l-0.38894 1.6113h-1.561l-1.3679 5.8817h-2.1167z"/>
		<path d="m127.74 70.103h-7.1067v-2.1881h7.1067z"/>
		<path d="m123 78.654h-2.3812v-6.4902h2.3812z"/>
		<path d="m125.37 78.649v-6.5008h2.3812v6.5008z"/>
	</g>
</svg>
