<svg version="1.1" xmlns="http://www.w3.org/2000/svg" width="32" height="32" viewBox="0 0 32 32">
<path fill="#9478f0" d="M4 1.333c-1.48 0-2.667 1.187-2.667 2.667v18.667c0 1.48 1.187 2.667 2.667 2.667h16l-8-24h-8zM16.453 6.667l0.88 2.667h10.667v18.667h-11.493l0.867 2.667h10.627c1.48 0 2.667-1.187 2.667-2.667v-18.667c0-1.48-1.187-2.667-2.667-2.667h-11.547zM9.413 7.88c1.467 0 2.707 0.533 3.627 1.453l-1.493 1.373c-0.387-0.387-1.053-0.827-2.133-0.827-1.853 0-3.333 1.52-3.333 3.373s1.48 3.413 3.333 3.413c2.16 0 2.933-1.56 3.093-2.333h-3.093v-1.827h5.093c0.067 0.307 0.080 0.52 0.080 0.907 0 3.093-2.080 5.253-5.173 5.253-3 0-5.413-2.413-5.413-5.413 0-3.013 2.413-5.373 5.413-5.373zM21.333 13.333v1.333h-2.213l0.427 1.333h4.453c-0.36 0.813-0.493 1.56-1.587 2.84-0.533-0.627-0.96-1.173-1.080-1.507h-1.333c0.16 0.573 0.827 1.467 1.627 2.373-0.173 0.173-0.413 0.4-0.627 0.587l0.373 1.12c0.333-0.293 0.667-0.6 1-0.907 1.36 1.427 2.8 2.747 2.8 2.747l0.747-0.8c0 0-1.427-1.4-2.707-2.787 0.84-0.933 1.587-2.067 2.12-3.667h1.333v-1.333h-4v-1.333h-1.333z"></path>
</svg>
