<svg version="1.1" xmlns="http://www.w3.org/2000/svg" width="32" height="32" viewBox="0 0 32 32">
	<path fill="#9478f0"
		  d="M31.381 10.744l-1.7 2.1q-7.615-3.915-10.916-8.158-3.229 4.472-10.415 7.987l-1.814-2.029q9.558-4.429 11.844-10.644l2.429 0.757q-0.486 1.429-0.643 1.672 3.086 4.415 11.216 8.315zM31.838 24.346l-1.872 1.786q-4.186-3.2-6.486-7.815-1.514 4.286-6.272 7.758l-1.872-1.729q3.315-2.2 4.972-5.186t1.886-8.515l2.515 0.214q0 0.743-0.114 1.857l-0.1 1q0 0.757 0.843 2.857 0.857 2.086 2.486 4.058 1.643 1.957 4.015 3.715zM18.565 20.545l-1.943 1.743q-1.643-2.157-3.215-3.529-1.8 3.929-5.586 7.401l-1.9-1.7q3.4-3.029 4.886-6.086 1.5-3.058 1.929-7.729l2.543 0.271q-0.286 2.6-1.014 5.301 2.772 2.386 4.3 4.329z"></path>
	<path fill="#9478f0" d="M12.749 31.969v-2.277h-9.997v-17.967h-2.583v20.244z"></path>
</svg>
