<svg version="1.1" viewBox="0 0 100 100" xmlns="http://www.w3.org/2000/svg">
	<g transform="matrix(1.0102 0 0 1.0102 -1.0235 .36813)">
		<text font-family="sans-serif" font-size="10.583px" stroke-width=".98002"
			  style="line-height:1.25;shape-inside:url(#rect880);white-space:pre" xml:space="preserve"/>
		<path
			d="m61.093 0.13165c-10.754 0-19.412 8.6565-19.412 19.41v18.797c0 0.0282 0-0.09766 2e-3 -0.01358h1.4388c10.726 0 19.586 8.7092 19.631 19.422h4.8031l9.2397-8.9049 8.8201 8.3986c8.756-1.8836 14.384-9.5689 14.384-18.904v-18.797c0-10.753-8.6575-19.41-19.412-19.41zm-3.8471 11.523c2.0469 1.7148 4.7119 4.2092 5.9092 5.8071l-1.9697 2.0656c-1.1973-1.6369-3.7462-4.2481-5.7932-6.1188zm7.9562 0.35088h21.821v2.611h-11.123c-0.27036 1.3641-0.57941 2.8842-0.927 4.3652h7.1452l0.42472-0.15586 2.0471 0.19476c-0.15449 2.4554-0.46341 5.3004-0.77238 7.7947h4.5188v2.6502h-24.447v-2.6502h6.3726c0.42485-1.5589 0.84957-3.3906 1.2744-5.3004h-4.9049v-2.5332h5.4842c0.3476-1.481 0.61795-3.0011 0.84969-4.3652h-7.7629zm9.2306 9.5094c-0.42484 1.9097-0.84978 3.7414-1.236 5.3004h7.8789c0.23174-1.7148 0.42485-3.6634 0.57934-5.3004zm-21.088 1.2472h8.0336v16.914l4.5959-3.0399c0.1545 0.74049 0.50203 1.8705 0.77238 2.4551-6.4112 4.443-7.4152 5.2225-7.9946 5.9629-0.23174-0.70151-0.96557-1.9485-1.429-2.5722 0.5407-0.38973 1.3518-1.2473 1.3518-2.8452v-14.109h-5.3299zm13.749 9.8989h18.655v13.446h-2.8195v-1.403h-13.094v1.5197h-2.7421zm2.7421 2.5335v6.9759h13.094v-6.9759z"
			fill="#9478f0" stroke-width=".55229"/>
		<path
			d="m21.691 40.09c-10.754 0-19.412 8.5395-19.412 19.147v18.542c0 10.607 8.6576 19.147 19.412 19.147h19.496c10.525 0 19.271-5.6817 18.94-16.019l0.08229-6.9989 0.18099-7.6458 0.2081-7.0246c0.31409-10.603-8.6576-19.147-19.412-19.147z"
			fill="none" stroke="#9478f0" stroke-width="2.5321"/>
		<path
			d="m47.95 44.582 1.178 6.0024 5.7485 1.414-5.1592 3.0899 0.40794 6.1207-4.3666-4.0927-5.4964 2.3688 2.4605-5.6193-3.8048-4.6567 5.8873 0.61979z"
			fill="#9478f0" stroke-width=".50886"/>
		<path
			d="m21.258 81.301c4.252-1.685 10.819 0.4356 19.351-0.06844l0.75923-0.04483c0.14461-0.0085 0.50397-0.06562 1.0781-0.17123 1.1774-0.92982 2.228-0.95605 3.1519-0.07867 0.9239 0.87741 0.95042 1.5933 0.07962 2.7918-0.73917 0.97567-3.5672 1.6087-8.4842 1.8992l-2.2777 0.13456c-5.0528 0.44189-9.4105-1.7376-12.722-0.10811-1.2669 0.64836-2.672 1.0904-4.2152 1.9702-1.1396 0.35408-2.0224 0.15532-2.6485-0.59629-0.54939-0.68445-0.56512-1.5438-0.0472-2.5781 2.4191-5.5914 3.9986-10.667 4.7385-15.227 0.81223-4.5645 1.4146-8.3997 1.8071-11.506 0.46052-3.1816 1.0802-6.7308 1.859-10.648 0.57727-1.2529 1.419-1.7327 2.5252-1.4396 1.1785 0.28883 1.7344 1.0804 1.6676 2.3748-1.1218 5.4432-2.0948 10.949-2.9188 16.518-0.75598 5.4932-1.9907 11.515-3.704 16.778z"
			fill="#9478f0" stroke-width="2.08" style="white-space:pre"/>
		<path
			d="m81.747 68.858v-11.339c0.75515-0.06231 1.4981-0.16673 2.2263-0.31155l-7.1935-7.0358-7.5476 7.4151h2.8001v11.283"
			fill="none" stroke="#9478f0" stroke-width="1.0473"/>
		<path
			d="m56.638 66.143-7.2795 7.5434v0.03186l7.0162 7.2704c0.13507-0.81301 0.21943-1.6433 0.25002-2.4876h15.948l9.7039-9.6489-25.639-0.0649z"
			fill="#9478f0" stroke-width=".27452"/>
	</g>
</svg>
