<svg width="100" height="100" version="1.1" viewBox="0 0 26.458 26.458" fill="currentColor" xmlns="http://www.w3.org/2000/svg"> <path d="m24.714 10.975c0.60835-1.8259 0.39886-3.8261-0.57399-5.4869-1.4631-2.5474-4.4043-3.8579-7.2767-3.2412-1.2779-1.4396-3.1138-2.2583-5.0386-2.2465-2.9362-0.0067141-5.5414 1.8837-6.4447 4.6774-1.8862 0.38629-3.5144 1.567-4.4671 3.2403-1.474 2.5407-1.1379 5.7433 0.83124 7.922-0.60835 1.8259-0.39886 3.8261 0.57399 5.4869 1.4631 2.5474 4.4043 3.8579 7.2767 3.2412 1.277 1.4396 3.1138 2.2583 5.0386 2.2457 2.9378 0.0075 5.5439-1.8845 6.4472-4.6808 1.8862-0.38629 3.5144-1.567 4.4671-3.2403 1.4723-2.5407 1.1354-5.7408-0.83292-7.9194zm-10.079 14.087c-1.1756 0.0016-2.3144-0.40976-3.2169-1.1631 0.04106-0.02179 0.11228-0.06117 0.15837-0.08966l5.3394-3.0836c0.27317-0.15502 0.44076-0.44579 0.43908-0.76002v-7.5273l2.2566 1.303c0.0243 0.01172 0.04022 0.0352 0.04357 0.06201v6.2335c-0.0034 2.7719-2.2482 5.0193-5.0201 5.0252zm-10.796-4.6112c-0.58908-1.0173-0.80108-2.2097-0.59913-3.3669 0.039384 0.02347 0.10893 0.0662 0.15837 0.09469l5.3394 3.0837c0.27066 0.15837 0.60584 0.15837 0.87733 0l6.5184-3.7641v2.606c0.0017 0.02683-0.0109 0.05279-0.03184 0.06955l-5.3972 3.1163c-2.4041 1.3843-5.4743 0.56142-6.8645-1.8393zm-1.4052-11.655c0.58656-1.0189 1.5125-1.7982 2.6152-2.203 0 0.046087-0.00251 0.12737-0.00251 0.18435v6.1681c-0.00167 0.31339 0.16591 0.60416 0.43825 0.75918l6.5184 3.7632-2.2566 1.303c-0.022624 0.01508-0.051115 0.01761-0.076253 0.0067l-5.3981-3.1188c-2.399-1.3893-3.2219-4.4587-1.8393-6.862zm18.54 4.3146-6.5184-3.7641 2.2566-1.3022c0.02263-0.015076 0.05111-0.017608 0.07625-0.00672l5.3981 3.1163c2.4032 1.3885 3.2269 4.4629 1.8385 6.8661-0.5874 1.0173-1.5125 1.7966-2.6144 2.2021v-6.3525c0.0025-0.3134-0.16424-0.60332-0.43573-0.75918zm2.2457-3.3803c-0.03938-0.024291-0.10893-0.066198-0.15837-0.094688l-5.3394-3.0837c-0.27066-0.15837-0.60584-0.15837-0.87733 0l-6.5184 3.7641v-2.606c-0.0017-0.026825 0.0109-0.052791 0.03184-0.069552l5.3972-3.1138c2.4041-1.3868 5.4777-0.56142 6.8636 1.8435 0.58573 1.0156 0.79773 2.2046 0.59913 3.3602zm-14.12 4.6447-2.2574-1.303c-0.024302-0.01172-0.040221-0.03519-0.043573-0.06201v-6.2335c0.00167-2.7753 2.2532-5.0243 5.0285-5.0227 1.174 0 2.3102 0.41227 3.2127 1.1631-0.04106 0.021788-0.11145 0.061168-0.15837 0.089659l-5.3394 3.0837c-0.27317 0.15502-0.44076 0.44495-0.43908 0.75918l-0.00335 7.5239zm1.2259-2.6429 2.9035-1.6767 2.9035 1.6759v3.3526l-2.9035 1.6759-2.9035-1.6759z" stroke-width=".26458"/></svg>
