<svg version="1.1" xmlns="http://www.w3.org/2000/svg" width="32" height="32" viewBox="0 0 32 32">
	<path fill="none" stroke-linejoin="miter" stroke-linecap="butt" stroke-miterlimit="4" stroke-width="0.5717"
		  stroke="#9478f0"
		  d="M29.955 22.736c-1.448 2.709-3.741 5.706-8.070 7.777-0.189-0.52-12.053-28.497-12.118-28.658 3.749-1.228 7.496-2.32 13.356 0.611 2.571 1.496 7.77 5.562 8.148 12.365 0.188 2.566 0.087 4.905-1.316 7.904z"></path>
	<path fill="#9478f0"
		  d="M26.724 13.692c-0.401-0.917-1.124-1.631-2.023-2.010l-0.025-0.009c0.168-0.745 0.223-1.359 0.242-1.768h-1.675c-0.034 0.487-0.1 0.936-0.198 1.373l0.011-0.061c-1.303-0.186-2.774 0-4.189 0.503-0.158-0.912-0.261-1.768-0.316-2.513 5.036-0.279 8.005-1.471 8.144-1.536l-0.633-1.508c-0.028 0-2.848 1.117-7.567 1.396 0-1.126-0.037-1.117 0.019-1.499l-1.675-0.019c-0.037 0.316-0.028 0.652-0.019 1.582h-0.158c-1.508 0-2.904-0.112-3.239-0.14l-0.307 1.666c0.493 0.037 2.001 0.121 3.351 0.121h0.205l0.214-0.009c0.065 0.931 0.186 2.011 0.41 3.183-2.225 1.303-4.002 3.816-3.090 5.864 0.372 0.856 1.108 1.415 2.048 1.554 0.168 0.019 0.335 0.037 0.503 0.037 0.959 0 2.057-0.382 3.109-1.033 0.395 0.593 0.821 1.111 1.294 1.582l0 0 1.154-1.201c-0.019-0.009-0.503-0.465-1.117-1.387 1.321-1.241 2.356-2.77 3.007-4.488l0.027-0.082c0.372 0.214 0.745 0.531 0.949 1.015 0.67 1.629-0.298 3.518-1.21 4.337l1.145 1.21c1.508-1.368 2.541-3.919 1.62-6.162zM16.503 18.225c-0.353-0.031-0.646-0.258-0.77-0.571l-0.002-0.006c-0.41-0.94 0.484-2.485 1.955-3.509 0.372 1.303 0.838 2.42 1.312 3.314-0.894 0.558-1.815 0.875-2.494 0.773zM20.701 15.991l-0.372 0.391c-0.41-0.838-0.819-1.843-1.117-3.034 0.853-0.352 1.844-0.557 2.882-0.557 0.181 0 0.361 0.006 0.539 0.018l-0.024-0.001c-0.467 1.23-1.113 2.289-1.918 3.204l0.010-0.012z"></path>
	<path fill="#9478f0"
		  d="M3.294 6.553c-4.087 4.989-4.13 13.687-1.171 17.55 4.571 7.459 12.936 9.666 20.199 6.512l-12.844-28.933c-3.756 1.758-5.094 3.562-6.183 4.871zM9.72 12.030h1.76l5.454 12.604h-2.234l-1.34-3.361h-5.519l-1.342 3.361h-2.232zM10.595 14.628l-2.029 4.941h4.069z"></path>
</svg>
